<svg xmlns="http://www.w3.org/2000/svg" width="45" height="45" viewBox="0 0 45 45"><defs><style>.a{fill:#fd8469;}.b{fill:#84dbff;}.c{fill:#fff;}.d{fill:#54c0eb;}.e{fill:#324a5e;}</style></defs><g transform="translate(-0.443 -0.443)"><circle class="a" cx="22.5" cy="22.5" r="22.5" transform="translate(0.443 0.443)"/><g transform="translate(5.137 29.86)"><path class="b" d="M253.012,362.8c-.035,0-.071.035-.106.035s-.071-.035-.106-.035Z" transform="translate(-235.494 -360.504)"/><path class="b" d="M91.625,343.617a22.414,22.414,0,0,1-34.825,0c2.931-3.92,7.417-5.863,11.09-6.817a12.323,12.323,0,0,0,.954,5.368c1.236-2.826,5.368-3.073,5.368-3.073s4.132.247,5.333,3.073A11.788,11.788,0,0,0,80.5,336.8C84.208,337.754,88.729,339.7,91.625,343.617Z" transform="translate(-56.8 -336.8)"/></g><path class="c" d="M206.9,297.777v.035c0,.353-.177,2.614-4.945,4.415h-.212c-4.768-1.8-4.945-4.062-4.945-4.415v-.035a6.2,6.2,0,0,1,.212-1.377c1.377,1.731,3.037,2.9,4.839,2.9s3.461-1.166,4.839-2.9A6.2,6.2,0,0,1,206.9,297.777Z" transform="translate(-179.301 -270.107)"/><g transform="translate(16.195 27.671)"><path class="d" d="M259.051,312s.247,2.543-5.051,4.521c0,0,4.132.247,5.333,3.073C259.4,319.664,261.77,313.519,259.051,312Z" transform="translate(-247.645 -312)"/><path class="d" d="M183.334,312c-2.72,1.519-.353,7.664-.283,7.558,1.236-2.826,5.333-3.073,5.333-3.073C183.087,314.543,183.334,312,183.334,312Z" transform="translate(-182.03 -312)"/></g><g transform="translate(13.212 9.668)"><path class="c" d="M187.022,117.177a10.053,10.053,0,0,1-2.861,5.792,6.836,6.836,0,0,1-.954.812l-.565-1.8h-6.075l-.565,1.8c-1.13-.848-3.5-3.214-3.532-5.439-.989-12.68,8.724-10,8.724-10C187.728,107.889,187.516,113.646,187.022,117.177Z" transform="translate(-170.267 -108.11)"/><path class="c" d="M334.2,201.791a3.612,3.612,0,0,1-1.8,1.589,14.99,14.99,0,0,0,.636-1.766v-.035l.424-1.589h-.035c.141-.53.283-1.06.388-1.589a1,1,0,0,1,.424.141C335.014,199.036,334.978,200.484,334.2,201.791Z" transform="translate(-316.14 -190.428)"/><path class="c" d="M150.664,204.474a3.612,3.612,0,0,1-1.8-1.589c-.812-1.307-.812-2.755-.035-3.214.071-.035.106-.071.177-.071a24.052,24.052,0,0,0,1.024,3.143A17.1,17.1,0,0,0,150.664,204.474Z" transform="translate(-148.249 -191.522)"/></g><path class="e" d="M157.927,39.408c.283-3.249-4.874-3.037-4.874-3.037a9.989,9.989,0,0,0-8.653,8.406l1.06-1.271c-1.66,3.638.848,9.889,1.06,10.384,1.307,4.344,4.2,8.335,7.558,8.335s6.251-3.991,7.558-8.335h0v-.035c.141-.53.283-1.06.389-1.589h-.035c.706-2.826,1.483-5.686,1.483-5.686C165.486,36.442,157.927,39.408,157.927,39.408Zm3.567,12.362a10.053,10.053,0,0,1-2.861,5.792,9.73,9.73,0,0,1-.954.812l-.565-1.766H151.04l-.565,1.8a11.1,11.1,0,0,1-2.861-3.355,7.5,7.5,0,0,1-.671-2.084c-.989-12.68,8.724-10,8.724-10C162.2,42.481,161.989,48.238,161.494,51.77Z" transform="translate(-131.528 -33.035)"/><g transform="translate(12.872 3.333)"><path class="e" d="M157.927,39.408c.283-3.249-4.874-3.037-4.874-3.037a9.989,9.989,0,0,0-8.653,8.406l1.06-1.271c-1.66,3.638.848,9.889,1.06,10.384,1.307,4.344,4.2,8.335,7.558,8.335s6.251-3.991,7.558-8.335h0v-.035c.141-.53.283-1.06.389-1.589h-.035c.706-2.826,1.483-5.686,1.483-5.686C165.486,36.442,157.927,39.408,157.927,39.408Zm3.567,12.362a10.053,10.053,0,0,1-2.861,5.792,9.73,9.73,0,0,1-.954.812l-.565-1.766H151.04l-.565,1.8a11.1,11.1,0,0,1-2.861-3.355,7.5,7.5,0,0,1-.671-2.084c-.989-12.68,8.724-10,8.724-10C162.2,42.481,161.989,48.238,161.494,51.77Z" transform="translate(-144.4 -36.368)"/></g><path class="e" d="M157.927,39.408c.283-3.249-4.874-3.037-4.874-3.037a9.989,9.989,0,0,0-8.653,8.406l1.06-1.271c-1.66,3.638.848,9.889,1.06,10.384,1.307,4.344,4.2,8.335,7.558,8.335s6.251-3.991,7.558-8.335h0v-.035c.141-.53.283-1.06.389-1.589h-.035c.706-2.826,1.483-5.686,1.483-5.686C165.486,36.442,157.927,39.408,157.927,39.408Zm3.567,12.362a10.053,10.053,0,0,1-2.861,5.792,9.73,9.73,0,0,1-.954.812l-.565-1.766H151.04l-.565,1.8c-1.13-.848-3.5-3.214-3.532-5.439-.989-12.68,8.724-10,8.724-10C162.2,42.481,161.989,48.238,161.494,51.77Z" transform="translate(-131.528 -33.035)"/><path class="c" d="M226,279.2a3.335,3.335,0,0,0,2.472,1.13,3.214,3.214,0,0,0,2.472-1.13Z" transform="translate(-205.923 -254.426)"/></g></svg>